<svg width="20" height="20" viewBox="0 0 40 40" fill="none" xmlns="http://www.w3.org/2000/svg">
<path d="M13.0417 21.6667L21.2083 29.8333C21.5417 30.1667 21.7014 30.5556 21.6875 31C21.6736 31.4444 21.5 31.8333 21.1667 32.1667C20.8333 32.4722 20.4444 32.6319 20 32.6458C19.5556 32.6597 19.1667 32.5 18.8333 32.1667L7.83333 21.1667C7.66667 21 7.54861 20.8194 7.47917 20.625C7.40972 20.4306 7.375 20.2222 7.375 20C7.375 19.7778 7.40972 19.5694 7.47917 19.375C7.54861 19.1806 7.66667 19 7.83333 18.8333L18.8333 7.83333C19.1389 7.52778 19.5208 7.375 19.9792 7.375C20.4375 7.375 20.8333 7.52778 21.1667 7.83333C21.5 8.16667 21.6667 8.5625 21.6667 9.02083C21.6667 9.47917 21.5 9.875 21.1667 10.2083L13.0417 18.3333H31.6667C32.1389 18.3333 32.5347 18.4931 32.8542 18.8125C33.1736 19.1319 33.3333 19.5278 33.3333 20C33.3333 20.4722 33.1736 20.8681 32.8542 21.1875C32.5347 21.5069 32.1389 21.6667 31.6667 21.6667H13.0417Z" fill="#1C1C1C"/>
</svg>
