<svg width="14" height="14" viewBox="0 0 14 14" fill="none" xmlns="http://www.w3.org/2000/svg">
<path fill-rule="evenodd" clip-rule="evenodd" d="M12.6911 13.5058L10.0062 10.8209L9.91129 10.8957C9.17036 11.4797 8.30054 11.8779 7.3744 12.0573C6.44825 12.2367 5.49263 12.192 4.58728 11.9269C3.68192 11.6619 2.85307 11.1842 2.16989 10.5336C1.48671 9.88311 0.968999 9.07864 0.659957 8.18734C0.350914 7.29603 0.2595 6.34375 0.393341 5.40994C0.527183 4.47612 0.882398 3.58785 1.42935 2.81924C1.9763 2.05062 2.69913 1.42395 3.53754 0.991512C4.37594 0.559069 5.3056 0.333393 6.24896 0.333313C7.35974 0.333238 8.44811 0.645889 9.3895 1.23548C10.3309 1.82508 11.0873 2.6678 11.5721 3.6672C12.0569 4.6666 12.2506 5.7823 12.1309 6.88662C12.0112 7.99094 11.5831 9.03926 10.8954 9.91161L10.8206 10.0066L13.5054 12.6914C13.6098 12.7999 13.6676 12.9451 13.6663 13.0957C13.665 13.2467 13.6044 13.3912 13.4976 13.498C13.3908 13.6047 13.2464 13.6653 13.0954 13.6666C12.9447 13.6679 12.7996 13.6102 12.6911 13.5058ZM2.88024 2.88057C1.9868 3.77401 1.48488 4.98577 1.48488 6.24928C1.48488 7.51279 1.9868 8.72455 2.88024 9.61798C3.77368 10.5114 4.98544 11.0133 6.24895 11.0133C7.51246 11.0133 8.72422 10.5114 9.61765 9.61798C10.5111 8.72455 11.013 7.51279 11.013 6.24928C11.013 4.98577 10.5111 3.77401 9.61765 2.88057C8.72422 1.98714 7.51246 1.48521 6.24895 1.48521C4.98544 1.48521 3.77368 1.98714 2.88024 2.88057Z" fill="white"/>
</svg>
